<svg xmlns="http://www.w3.org/2000/svg" width="48" height="48">
<g>
	<path d="M46.2,18.2H46v-0.9c0-1.2-1.2-1.8-2.5-1.8c-0.5,0-1,0.1-1.4,0.3c0,0,2.3-4.6,2.3-4.6c1-2.3-3-4-4.4-1.4l-5.2,10.2
		c-0.3,0.6-0.4,1.4,0,2.1c-0.2-0.1-0.4-0.2-0.7-0.2h-4.9c1.6-1.6,6.6-3.5,6.6-8c0-1.6-0.7-3-1.9-4c-1.1-0.9-2.5-1.4-4-1.4
		c-2.8,0-5.8,1.8-5.8,5c0,2.2,1.4,2.5,2.3,2.5c1.7,0,2.5-1,2.5-2c0-0.5,0.1-1,1-1c0.9,0,1,0.6,1,0.9c0,2.3-7.1,4.5-7.1,8.4v2.2
		c0,1.1,1.3,1.8,2.2,1.8h8c1.4,0,2.3-2.2,1.3-3.7c0.3,0.1,0.6,0.2,0.9,0.2H41v1.7c0,1,1,1.8,2.5,1.8s2.5-0.7,2.5-1.8v-1.7h0.3
		c1,0,1.8-1.2,1.8-2.3C48,19.1,47.3,18.2,46.2,18.2L46.2,18.2z M34.2,24.9h-8c-0.4,0-0.8-0.3-0.8-0.4v-2.2c0-3.1,7.1-5,7.1-8.4
		c0-1.1-0.8-2.3-2.4-2.3c-1.5,0-2.4,0.9-2.4,2.4c0,0.2-0.4,0.6-1.1,0.6c-0.5,0-0.9-0.1-0.9-1.1c0-2.3,2.3-3.6,4.4-3.6
		c2.3,0,4.5,1.4,4.5,3.9c0,4.5-6.9,5.8-6.9,8.5v0.2c0,0.4,0.3,0.7,0.7,0.7h5.9c0.1,0,0.4,0.3,0.4,0.8C34.6,24.5,34.3,24.8,34.2,24.9
		L34.2,24.9z M46.2,21.4h-0.9c-0.4,0-0.7,0.3-0.7,0.7v2.4c0,0.2-0.4,0.4-1,0.4s-1-0.2-1-0.4v-2.4c0-0.4-0.3-0.7-0.7-0.7h-5.3
		c-0.5,0-0.5-0.5-0.4-0.8c0,0,0,0,0,0l5.2-10.2c0.5-1,1.9-0.2,1.9,0.1c0,0.1,0,0-4,8.1c-0.2,0.5,0.1,1,0.6,1h1.9
		c0.4,0,0.7-0.3,0.7-0.7v-1.6c0-0.1,0.4-0.4,1.1-0.4c0.6,0,1,0.2,1,0.4v1.6c0,0.4,0.3,0.7,0.7,0.7h1c0.2,0,0.4,0.4,0.4,0.9
		C46.6,21,46.3,21.3,46.2,21.4L46.2,21.4z M41,18v0.2H41L41,18z"/>
	<g>
		<path d="M37,36.6c2.4-2.3,4.2-5.2,5.2-8.4c0.1-0.4-0.1-0.8-0.5-0.9c-0.4-0.1-0.8,0.1-0.9,0.5c-0.9,2.9-2.6,5.6-4.8,7.7
			c-0.3,0.3-0.3,0.7,0,1C36.2,36.9,36.7,36.9,37,36.6L37,36.6z"/>
		<path d="M35.1,7.9c0.2-0.3,0.2-0.8-0.2-1c-5.3-3.7-11.8-4.5-17.6-2.5C17,4.5,16.8,4.9,17,5.3s0.5,0.6,0.9,0.4
			C23.1,3.9,29.2,4.5,34.1,8C34.4,8.2,34.9,8.2,35.1,7.9L35.1,7.9z"/>
		<path d="M25.2,43.6c-0.9-0.5-1.9-0.6-2.8-0.4c-0.5,0.1-1.1,0.2-1.6,0.3c-0.4,0-0.7,0.4-0.6,0.8s0.4,0.7,0.8,0.6
			c0.6,0,1.2-0.1,1.8-0.3c0.6-0.1,1.2,0,1.8,0.3c1.6,0.9,3.5,0.9,5.1-0.1c3.6-2.2,3.2-2,3.4-2.1c2.2-1.5,2.9-4.5,1.5-6.8L32,31.8
			c-1.4-2.3-4.5-3.1-6.8-1.6l-3.2,2c-1.5,0.9-2.4,2.5-2.4,4.2c0,0.2-0.1,0.3-0.3,0.2c-1.2-0.3-2.4-0.8-3.3-1.7
			c-1.4-1.3-2.6-2.6-3.7-4c-0.2-0.3-0.7-0.4-1-0.1s-0.4,0.7-0.1,1c1.1,1.5,2.4,2.9,3.9,4.2c1.1,1,2.5,1.7,3.9,2c1,0.2,2-0.6,2-1.6
			c0-1.2,0.6-2.4,1.7-3l2.7-1.7l6.3,10.2l-2.7,1.7C27.8,44.2,26.4,44.2,25.2,43.6L25.2,43.6z M26.6,31c1.5-0.5,3.3,0.1,4.1,1.5
			l2.5,4.1c0.9,1.4,0.6,3.2-0.5,4.4L26.6,31z"/>
		<path d="M0.4,23.2c1,3.8,2.4,7.2,4.2,10.2s4.2,5.8,7.1,8.4c1.6,1.4,3.6,2.4,5.7,2.9c0.4,0.1,0.8-0.2,0.8-0.5
			c0.1-0.4-0.2-0.8-0.5-0.8c-1.9-0.4-3.6-1.3-5.1-2.5c-2.8-2.5-5.1-5.2-6.9-8.1c-1.7-2.8-3.1-6.1-4.1-9.8C0.9,19.4,1.7,15.7,4,13
			c0.6-0.7,1-1.7,0.9-2.7C4.8,9,5.5,7.8,6.6,7.1l2.7-1.7l6.3,10.2l-2.7,1.7c-1,0.6-2.3,0.7-3.4,0.2c-0.9-0.5-2,0.1-2.3,1.1
			c-0.4,1.5-0.4,3,0,4.5c0.6,2.1,1.3,4.1,2.2,5.8c0.2,0.3,0.6,0.5,1,0.3c0.3-0.2,0.5-0.6,0.3-1c-0.9-1.7-1.6-3.5-2.1-5.5
			c-0.3-1.2-0.3-2.5,0-3.7c0-0.1,0.2-0.2,0.3-0.2c1.5,0.8,3.3,0.7,4.8-0.2l3.2-2c2.3-1.4,3.1-4.5,1.6-6.8l-2.5-4.1
			c-1.4-2.4-4.5-3.1-6.8-1.6l-3.2,2c-1.5,0.9-2.5,2.7-2.4,4.5c0,0.6-0.2,1.2-0.6,1.7C0.3,15.2-0.6,19.3,0.4,23.2L0.4,23.2z
			 M14.7,6.3l2.5,4.1c0.9,1.4,0.6,3.2-0.5,4.4L10.6,4.8C12.1,4.3,13.9,4.9,14.7,6.3L14.7,6.3z"/>
	</g>
</g>
</svg>
