<svg id="Layer_1" enable-background="new 0 0 512 512" height="48" viewBox="0 0 512 512" width="48" xmlns="http://www.w3.org/2000/svg"><path d="m402.967 114.173c-5.345 1.564-8.411 7.165-6.847 12.511 3.848 13.153 5.8 26.894 5.8 40.84 0 63.866-26.427 96.799-49.744 125.854-12.567 15.661-24.521 30.571-30.522 48.378h-27.22l15.804-91.248h18.176c5.57 0 10.085-4.515 10.085-10.085s-4.515-10.085-10.085-10.085h-144.827c-5.57 0-10.085 4.515-10.085 10.085s4.515 10.085 10.085 10.085h18.174l15.781 91.248h-27.196c-6.002-17.809-17.961-32.72-30.533-48.381-23.324-29.056-49.761-61.988-49.761-125.851 0-80.424 65.466-145.854 145.934-145.854 34.168 0 67.384 12.04 93.529 33.903 4.273 3.573 10.633 3.005 14.206-1.267 3.573-4.273 3.006-10.633-1.267-14.206-29.767-24.892-67.578-38.6-106.468-38.6-91.59 0-166.104 74.478-166.104 166.024 0 70.957 30.054 108.395 54.202 138.477 11.289 14.063 21.272 26.527 26.403 40.146-9.576 5.595-16.027 15.976-16.027 27.842 0 13.638 8.522 25.317 20.519 30.016-2.138 4.307-3.347 9.153-3.347 14.279 0 13.863 8.801 25.709 21.11 30.25v28.489c0 18.46 15.036 33.479 33.519 33.479h59.449c18.482 0 33.519-15.019 33.519-33.479v-28.489c12.309-4.542 21.11-16.387 21.11-30.25 0-5.124-1.208-9.969-3.345-14.275 12.012-4.697 20.545-16.378 20.545-30.02 0-11.861-6.452-22.238-16.03-27.835 5.129-13.621 15.11-26.087 26.396-40.152 24.14-30.082 54.183-67.52 54.183-138.478 0-15.864-2.225-31.51-6.612-46.504-1.562-5.346-7.165-8.415-12.509-6.847zm-180.738 136.335h67.538l-15.804 91.248h-35.953zm85.867 179.838h-9.974c-5.57 0-10.085 4.515-10.085 10.085s4.515 10.085 10.085 10.085h.938v26.506c0 7.339-5.988 13.309-13.349 13.309h-59.449c-7.361 0-13.349-5.97-13.349-13.309v-26.678c4.704-.854 8.274-4.963 8.274-9.914 0-5.57-4.515-10.085-10.085-10.085h-7.226c-6.658 0-12.074-5.411-12.074-12.063s5.416-12.063 12.074-12.063h104.22c6.658 0 12.074 5.411 12.074 12.063s-5.416 12.064-12.074 12.064zm17.172-44.296h-17.172-104.22-17.172c-6.658 0-12.074-5.411-12.074-12.062s5.416-12.063 12.074-12.063h42.771c.011 0 .022.001.033.001s.023-.001.034-.001h52.887c.011 0 .023.001.034.001s.022-.001.033-.001h42.771c6.673 0 12.102 5.411 12.102 12.063.001 6.651-5.428 12.062-12.101 12.062z"/><path d="m501.915 176.811h-34.315c-5.57 0-10.085 4.515-10.085 10.085s4.515 10.085 10.085 10.085h34.315c5.57 0 10.085-4.515 10.085-10.085s-4.515-10.085-10.085-10.085z"/><path d="m472.616 84.402c2.58 0 5.16-.984 7.129-2.952l24.255-24.244c3.94-3.937 3.941-10.323.004-14.262-3.939-3.94-10.324-3.942-14.262-.004l-24.256 24.243c-3.94 3.937-3.941 10.323-.004 14.262 1.97 1.971 4.552 2.957 7.134 2.957z"/><path d="m479.745 281.975c-3.94-3.938-10.325-3.936-14.262.004-3.937 3.939-3.936 10.325.004 14.262l24.256 24.243c1.969 1.968 4.549 2.952 7.129 2.952 2.582 0 5.164-.986 7.133-2.956 3.937-3.939 3.936-10.325-.004-14.262z"/><path d="m44.4 176.811h-34.315c-5.57 0-10.085 4.515-10.085 10.084 0 5.57 4.515 10.085 10.085 10.085h34.315c5.57 0 10.085-4.515 10.085-10.085 0-5.569-4.515-10.084-10.085-10.084z"/><path d="m32.227 81.449c1.969 1.968 4.549 2.952 7.129 2.952 2.582 0 5.164-.986 7.133-2.956 3.937-3.939 3.936-10.325-.004-14.262l-24.256-24.242c-3.94-3.938-10.325-3.936-14.262.004-3.937 3.939-3.935 10.324.004 14.261z"/><path d="m32.227 281.975-24.256 24.244c-3.94 3.937-3.941 10.323-.004 14.262 1.97 1.97 4.551 2.956 7.133 2.956 2.58 0 5.16-.984 7.129-2.952l24.256-24.243c3.94-3.937 3.941-10.323.004-14.262-3.938-3.941-10.324-3.942-14.262-.005z"/><path d="m256.099 430.346h-.198c-5.57 0-10.085 4.515-10.085 10.085s4.515 10.085 10.085 10.085h.198c5.57 0 10.085-4.515 10.085-10.085s-4.515-10.085-10.085-10.085z"/><path d="m379.081 89c1.992 2.49 4.923 3.785 7.881 3.785 2.209 0 4.435-.723 6.294-2.21 4.349-3.479 5.054-9.825 1.575-14.175l-.113-.142c-3.479-4.349-9.826-5.054-14.175-1.575s-5.054 9.825-1.575 14.175z"/></svg>