<svg id="Layer_5" enable-background="new 0 0 64 64" height="48" viewBox="0 0 64 64" width="48" xmlns="http://www.w3.org/2000/svg"><path d="m60 41h-1v-25.469l-12.638-10.531h-2.362v9.648l-10.613-9.648h-2.387v10h-2.132l-2-14h-7.734l-2 14h-2.134v8.847c-2.267.996-4.132 2.814-5.153 5.153h-.847c-1.654 0-3 1.346-3 3s1.346 3 3 3h.205c.587 2.902 2.412 5.307 4.876 6.7-7.538 2.148-13.081 9.082-13.081 17.3v4h36v-4c0-4.612-1.759-8.811-4.622-12h6.622v13c0 1.654 1.346 3 3 3h18c1.654 0 3-1.346 3-3v-16c0-1.654-1.346-3-3-3zm-39.133-38h4.266l1.714 12h-7.693zm12.133 14v-9.648l10.613 9.648h2.387v-9.698l11 9.167v2.531h-40v-2zm-14 8c2.878 0 5.49 1.565 6.902 4h-13.804c1.412-2.435 4.024-4 6.902-4zm-11 7c0-.552.448-1 1-1h20c.552 0 1 .448 1 1s-.448 1-1 1h-20c-.552 0-1-.448-1-1zm3.264 3h15.473c-.893 3.487-4.038 6-7.736 6s-6.844-2.513-7.737-6zm1.423 9.303 4.945 5.651-2.207 2.207-2.882-7.788c.049-.022.095-.049.144-.07zm6.313 7.111 2.811 2.811-2.507 6.775h-.608l-2.507-6.775zm3.575.747-2.207-2.207 4.945-5.651c.049.021.095.048.143.069zm-3.575-3.679-4.274-4.885c1.363-.379 2.792-.597 4.274-.597s2.911.218 4.274.597zm-16 10.518c0-5.806 3.119-10.884 7.759-13.689l5.805 15.689h-7.564v-8h-2v8h-4zm32 2h-4v-8h-2v8h-7.564l5.805-15.689c4.64 2.805 7.759 7.883 7.759 13.689zm-4.712-16c-1.856-1.499-4.016-2.629-6.37-3.3 2.464-1.393 4.289-3.799 4.876-6.7h.206c1.654 0 3-1.346 3-3s-1.346-3-3-3h-.847c-1.58-3.616-5.171-6-9.153-6-.681 0-1.349.077-2 .211v-2.211h40v20h-15c-1.654 0-3 1.346-3 3v1zm18.712-2h4v4h-4zm12 17c0 .552-.448 1-1 1h-18c-.552 0-1-.448-1-1v-16c0-.552.448-1 1-1h5v6h8v-6h5c.552 0 1 .448 1 1z"/><path d="m57 57h2v2h-2z"/><path d="m49 57h2v2h-2z"/><path d="m53 57h2v2h-2z"/><path d="m49 53h10v2h-10z"/><path d="m55 23h-20v14h20zm-2 6h-4v-4h4zm-10 0v-4h4v4zm4 2v4h-4v-4zm-6-6v4h-4v-4zm-4 6h4v4h-4zm12 4v-4h4v4z"/></svg>